<svg xmlns="http://www.w3.org/2000/svg" xmlns:xlink="http://www.w3.org/1999/xlink" width="547.135" height="128" viewBox="0 0 547.135 128">
  <defs>
    <linearGradient id="linear-gradient" y1="0.5" x2="1" y2="0.5" gradientUnits="objectBoundingBox">
      <stop offset="0" stop-color="#ff9e6e"/>
      <stop offset="0.208" stop-color="#ffa470"/>
      <stop offset="0.501" stop-color="#ffb676"/>
      <stop offset="0.843" stop-color="#ffd47f"/>
      <stop offset="1" stop-color="#ffe585"/>
    </linearGradient>
  </defs>
  <g id="Group_220" data-name="Group 220" transform="translate(-141.339 -567)">
    <g id="Group_103" data-name="Group 103" transform="translate(-83.526 -54)">
      <text id="COResets_and_Data_Subset_selection" data-name="COResets and Data Subset selection" transform="translate(356 743)" font-size="25" font-family="SFCompactText-Regular, SF Text"><tspan x="0" y="0">COResets and Data Subset selection</tspan></text>
      <text id="CORDS" transform="translate(356 699)" fill="#ffbc78" font-size="82" font-family="SFCompactText-Medium, SF Text" font-weight="500"><tspan x="0" y="0">CORDS</tspan></text>
    </g>
    <g id="Group_215" data-name="Group 215" transform="translate(-346 514.679)">
      <path id="Path_570" data-name="Path 570" d="M524.069,107.511c-1.12-.646-2.028-.129-2.028,1.156a4.469,4.469,0,0,0,2.028,3.5c1.12.646,2.028.129,2.028-1.156A4.47,4.47,0,0,0,524.069,107.511Zm-6.94-4.006c-1.12-.647-2.029-.129-2.029,1.156a4.467,4.467,0,0,0,2.029,3.5c1.119.647,2.028.13,2.028-1.156A4.469,4.469,0,0,0,517.129,103.5Zm-13.881-8.014c-1.119-.647-2.028-.129-2.028,1.156a4.469,4.469,0,0,0,2.028,3.5c1.121.647,2.028.13,2.028-1.156A4.465,4.465,0,0,0,503.248,95.491Zm-6.94-4.008c-1.121-.646-2.028-.129-2.028,1.157a4.467,4.467,0,0,0,2.028,3.5c1.119.646,2.028.129,2.028-1.156A4.473,4.473,0,0,0,496.308,91.483ZM510.189,99.5c-1.12-.646-2.029-.129-2.029,1.156a4.469,4.469,0,0,0,2.029,3.5c1.119.646,2.028.129,2.028-1.156A4.473,4.473,0,0,0,510.189,99.5Zm-20.821-12.02c-1.12-.646-2.029-.129-2.029,1.156a4.471,4.471,0,0,0,2.029,3.5c1.119.646,2.028.129,2.028-1.156A4.469,4.469,0,0,0,489.368,87.477Zm41.641,28.7c1.12.647,2.029.13,2.029-1.156a4.467,4.467,0,0,0-2.029-3.5c-1.12-.647-2.028-.129-2.028,1.156A4.465,4.465,0,0,0,531.009,116.172Zm-20.82-8.318c-1.12-.646-2.029-.129-2.029,1.156a4.467,4.467,0,0,0,2.029,3.5c1.119.647,2.028.13,2.028-1.155A4.471,4.471,0,0,0,510.189,107.855Zm-6.941-4.006c-1.119-.647-2.028-.13-2.028,1.156a4.469,4.469,0,0,0,2.028,3.5c1.121.647,2.028.129,2.028-1.156A4.465,4.465,0,0,0,503.248,103.848Zm27.761,16.027c-1.12-.646-2.028-.129-2.028,1.157a4.465,4.465,0,0,0,2.028,3.5c1.12.646,2.029.129,2.029-1.156A4.471,4.471,0,0,0,531.009,119.875Zm-13.88-8.013c-1.12-.647-2.029-.13-2.029,1.156a4.467,4.467,0,0,0,2.029,3.5c1.119.647,2.028.129,2.028-1.156A4.469,4.469,0,0,0,517.129,111.862Zm6.94,4.006c-1.12-.646-2.028-.129-2.028,1.156a4.465,4.465,0,0,0,2.028,3.5c1.12.647,2.028.13,2.028-1.155A4.468,4.468,0,0,0,524.069,115.868Zm-34.7-20.034c-1.12-.647-2.029-.13-2.029,1.156a4.467,4.467,0,0,0,2.029,3.5c1.119.647,2.028.129,2.028-1.156A4.469,4.469,0,0,0,489.368,95.834Zm6.94,4.006c-1.121-.646-2.028-.129-2.028,1.156a4.469,4.469,0,0,0,2.028,3.5c1.119.646,2.028.129,2.028-1.156A4.471,4.471,0,0,0,496.308,99.841Zm13.881,16.371c-1.12-.647-2.029-.129-2.029,1.156a4.467,4.467,0,0,0,2.029,3.5c1.119.647,2.028.129,2.028-1.156A4.469,4.469,0,0,0,510.189,116.212ZM489.368,104.19c-1.12-.646-2.029-.129-2.029,1.156a4.469,4.469,0,0,0,2.029,3.5c1.119.646,2.028.129,2.028-1.156A4.473,4.473,0,0,0,489.368,104.19Zm13.88,8.014c-1.119-.646-2.028-.129-2.028,1.156a4.473,4.473,0,0,0,2.028,3.5c1.121.646,2.028.129,2.028-1.156A4.469,4.469,0,0,0,503.248,112.2Zm-6.94-4.006c-1.121-.647-2.028-.129-2.028,1.156a4.465,4.465,0,0,0,2.028,3.5c1.119.647,2.028.13,2.028-1.156A4.469,4.469,0,0,0,496.308,108.2Zm20.821,12.02c-1.12-.646-2.029-.129-2.029,1.156a4.471,4.471,0,0,0,2.029,3.5c1.119.646,2.028.129,2.028-1.156A4.473,4.473,0,0,0,517.129,120.218Zm13.88,8.014c-1.12-.646-2.028-.129-2.028,1.156a4.469,4.469,0,0,0,2.028,3.5c1.12.646,2.029.129,2.029-1.156A4.471,4.471,0,0,0,531.009,128.232Zm-6.94-4.006c-1.12-.647-2.028-.129-2.028,1.156a4.465,4.465,0,0,0,2.028,3.5c1.12.647,2.028.129,2.028-1.156A4.466,4.466,0,0,0,524.069,124.226Zm-27.761-7.672c-1.121-.646-2.028-.129-2.028,1.157a4.465,4.465,0,0,0,2.028,3.5c1.119.647,2.028.129,2.028-1.156A4.473,4.473,0,0,0,496.308,116.554Zm34.7,20.036c-1.12-.647-2.028-.129-2.028,1.156a4.466,4.466,0,0,0,2.028,3.5c1.12.647,2.029.13,2.029-1.155A4.467,4.467,0,0,0,531.009,136.589Zm-6.94-4.008c-1.12-.646-2.028-.129-2.028,1.156a4.468,4.468,0,0,0,2.028,3.5c1.12.646,2.028.129,2.028-1.156A4.47,4.47,0,0,0,524.069,132.582Zm-20.821-12.02c-1.119-.646-2.028-.129-2.028,1.156a4.469,4.469,0,0,0,2.028,3.5c1.121.647,2.028.13,2.028-1.156A4.467,4.467,0,0,0,503.248,120.561Zm6.941,4.006c-1.12-.646-2.029-.129-2.029,1.156a4.469,4.469,0,0,0,2.029,3.5c1.119.646,2.028.129,2.028-1.156A4.473,4.473,0,0,0,510.189,124.568Zm6.94,4.008c-1.12-.646-2.029-.129-2.029,1.156a4.467,4.467,0,0,0,2.029,3.5c1.119.647,2.028.13,2.028-1.156A4.471,4.471,0,0,0,517.129,128.576Zm-27.761-16.028c-1.12-.646-2.029-.129-2.029,1.156a4.467,4.467,0,0,0,2.029,3.5c1.119.647,2.028.13,2.028-1.155A4.471,4.471,0,0,0,489.368,112.548Zm0,8.357c-1.12-.647-2.029-.129-2.029,1.156a4.467,4.467,0,0,0,2.029,3.5c1.119.647,2.028.129,2.028-1.156A4.469,4.469,0,0,0,489.368,120.9Zm41.641,24.042c-1.12-.647-2.028-.13-2.028,1.156a4.466,4.466,0,0,0,2.028,3.5c1.12.647,2.029.129,2.029-1.156A4.467,4.467,0,0,0,531.009,144.947Zm-34.7-20.036c-1.121-.646-2.028-.129-2.028,1.156a4.469,4.469,0,0,0,2.028,3.5c1.119.646,2.028.129,2.028-1.156A4.473,4.473,0,0,0,496.308,124.911Zm27.761,16.028c-1.12-.646-2.028-.129-2.028,1.156a4.469,4.469,0,0,0,2.028,3.5c1.12.646,2.028.129,2.028-1.156A4.466,4.466,0,0,0,524.069,140.939Zm-6.94-4.006c-1.12-.647-2.029-.129-2.029,1.156a4.467,4.467,0,0,0,2.029,3.5c1.119.647,2.028.129,2.028-1.156A4.469,4.469,0,0,0,517.129,136.933Zm-13.881-8.014c-1.119-.647-2.028-.13-2.028,1.156a4.469,4.469,0,0,0,2.028,3.5c1.121.647,2.028.129,2.028-1.156A4.465,4.465,0,0,0,503.248,128.919Zm6.941,4.006c-1.12-.646-2.029-.129-2.029,1.156a4.471,4.471,0,0,0,2.029,3.5c1.119.646,2.028.129,2.028-1.156A4.473,4.473,0,0,0,510.189,132.925Zm20.82,20.378c-1.12-.646-2.028-.129-2.028,1.156a4.468,4.468,0,0,0,2.028,3.5c1.12.646,2.029.129,2.029-1.156A4.471,4.471,0,0,0,531.009,153.3Zm-20.82-12.02c-1.12-.647-2.029-.129-2.029,1.156a4.467,4.467,0,0,0,2.029,3.5c1.119.647,2.028.13,2.028-1.156A4.469,4.469,0,0,0,510.189,141.283Zm-20.821-12.022c-1.12-.646-2.029-.129-2.029,1.156a4.469,4.469,0,0,0,2.029,3.5c1.119.646,2.028.129,2.028-1.156A4.473,4.473,0,0,0,489.368,129.261Zm6.94,4.008c-1.121-.646-2.028-.129-2.028,1.156a4.465,4.465,0,0,0,2.028,3.5c1.119.647,2.028.13,2.028-1.156A4.47,4.47,0,0,0,496.308,133.268ZM524.069,149.3c-1.12-.647-2.028-.129-2.028,1.156a4.466,4.466,0,0,0,2.028,3.5c1.12.647,2.028.13,2.028-1.156A4.466,4.466,0,0,0,524.069,149.3Zm-20.821-12.022c-1.119-.646-2.028-.129-2.028,1.156a4.471,4.471,0,0,0,2.028,3.5c1.121.646,2.028.129,2.028-1.156A4.469,4.469,0,0,0,503.248,137.275Zm13.881,8.014c-1.12-.646-2.029-.129-2.029,1.156a4.469,4.469,0,0,0,2.029,3.5c1.119.646,2.028.129,2.028-1.156A4.473,4.473,0,0,0,517.129,145.289Zm-13.881.343c-1.119-.646-2.028-.129-2.028,1.156a4.473,4.473,0,0,0,2.028,3.5c1.121.646,2.028.129,2.028-1.156A4.467,4.467,0,0,0,503.248,145.632Zm13.881,8.014c-1.12-.646-2.029-.129-2.029,1.156a4.467,4.467,0,0,0,2.029,3.5c1.119.647,2.028.13,2.028-1.155A4.469,4.469,0,0,0,517.129,153.646Zm-27.761-16.028c-1.12-.646-2.029-.129-2.029,1.156a4.471,4.471,0,0,0,2.029,3.5c1.119.646,2.028.129,2.028-1.156A4.471,4.471,0,0,0,489.368,137.618Zm41.641,24.042c-1.12-.646-2.028-.129-2.028,1.156a4.466,4.466,0,0,0,2.028,3.5c1.12.647,2.029.13,2.029-1.156A4.469,4.469,0,0,0,531.009,161.66Zm-6.94-4.006c-1.12-.647-2.028-.13-2.028,1.156a4.465,4.465,0,0,0,2.028,3.5c1.12.646,2.028.129,2.028-1.156A4.466,4.466,0,0,0,524.069,157.654Zm-27.761-16.028c-1.121-.647-2.028-.13-2.028,1.156a4.465,4.465,0,0,0,2.028,3.5c1.119.647,2.028.129,2.028-1.156A4.469,4.469,0,0,0,496.308,141.626Zm13.881,8.014c-1.12-.647-2.029-.13-2.029,1.156a4.467,4.467,0,0,0,2.029,3.5c1.119.646,2.028.129,2.028-1.156A4.469,4.469,0,0,0,510.189,149.64Z" transform="translate(0 4.969)" fill="url(#linear-gradient)"/>
      <path id="Path_571" data-name="Path 571" d="M564.668,90.96a4.469,4.469,0,0,0-2.028,3.5c0,1.285.908,1.8,2.028,1.156a4.467,4.467,0,0,0,2.029-3.5C566.7,90.832,565.788,90.313,564.668,90.96Zm-6.94,4.006a4.469,4.469,0,0,0-2.028,3.5c0,1.286.908,1.8,2.028,1.156a4.467,4.467,0,0,0,2.029-3.5C559.757,94.838,558.848,94.321,557.728,94.967Zm-13.88,8.014a4.469,4.469,0,0,0-2.029,3.5c0,1.286.908,1.8,2.029,1.156a4.469,4.469,0,0,0,2.028-3.5C545.875,102.852,544.967,102.335,543.848,102.981Zm6.94-4.006a4.466,4.466,0,0,0-2.028,3.5c0,1.285.907,1.8,2.028,1.156a4.466,4.466,0,0,0,2.028-3.5C552.815,98.844,551.908,98.327,550.788,98.974Zm-20.821,12.02a4.469,4.469,0,0,0-2.028,3.5c0,1.286.908,1.8,2.028,1.156a4.467,4.467,0,0,0,2.029-3.5C532,110.866,531.087,110.348,529.967,110.995Zm6.941-4.008a4.471,4.471,0,0,0-2.029,3.5c0,1.285.908,1.8,2.029,1.156a4.469,4.469,0,0,0,2.028-3.5C538.935,106.858,538.027,106.341,536.908,106.987Zm34.7-15.38a4.473,4.473,0,0,0,2.028-3.5c0-1.285-.908-1.8-2.028-1.156a4.467,4.467,0,0,0-2.028,3.5C569.581,91.736,570.488,92.254,571.609,91.608Zm-34.7,23.737a4.471,4.471,0,0,0-2.029,3.5c0,1.285.908,1.8,2.029,1.156a4.473,4.473,0,0,0,2.028-3.5C538.935,115.216,538.027,114.7,536.908,115.344Zm-6.941,4.008a4.469,4.469,0,0,0-2.028,3.5c0,1.285.908,1.8,2.028,1.156a4.468,4.468,0,0,0,2.029-3.5C532,119.222,531.087,118.7,529.967,119.352Zm27.761-16.028a4.469,4.469,0,0,0-2.028,3.5c0,1.285.908,1.8,2.028,1.156a4.467,4.467,0,0,0,2.029-3.5C559.757,103.194,558.848,102.677,557.728,103.324Zm13.881-8.014a4.465,4.465,0,0,0-2.028,3.5c0,1.285.907,1.8,2.028,1.156a4.469,4.469,0,0,0,2.028-3.5C573.637,95.181,572.728,94.663,571.609,95.31Zm-20.821,12.02a4.468,4.468,0,0,0-2.028,3.5c0,1.285.907,1.8,2.028,1.156a4.469,4.469,0,0,0,2.028-3.5C552.815,107.2,551.908,106.684,550.788,107.331Zm-6.94,4.008a4.467,4.467,0,0,0-2.029,3.5c0,1.285.908,1.8,2.029,1.156a4.469,4.469,0,0,0,2.028-3.5C545.875,111.208,544.967,110.691,543.848,111.338Zm20.82-12.022a4.473,4.473,0,0,0-2.028,3.5c0,1.285.908,1.8,2.028,1.156a4.471,4.471,0,0,0,2.029-3.5C566.7,99.188,565.788,98.67,564.668,99.317Zm-13.88,16.371a4.466,4.466,0,0,0-2.028,3.5c0,1.286.907,1.8,2.028,1.156a4.465,4.465,0,0,0,2.028-3.5C552.815,115.559,551.908,115.041,550.788,115.688Zm-13.88,8.014a4.467,4.467,0,0,0-2.029,3.5c0,1.286.908,1.8,2.029,1.156a4.469,4.469,0,0,0,2.028-3.5C538.935,123.573,538.027,123.055,536.908,123.7Zm27.76-16.028a4.469,4.469,0,0,0-2.028,3.5c0,1.286.908,1.8,2.028,1.156a4.467,4.467,0,0,0,2.029-3.5C566.7,107.545,565.788,107.027,564.668,107.674Zm6.941-4.006a4.465,4.465,0,0,0-2.028,3.5c0,1.285.907,1.8,2.028,1.156a4.469,4.469,0,0,0,2.028-3.5C573.637,103.537,572.728,103.02,571.609,103.667Zm-27.761,16.027a4.471,4.471,0,0,0-2.029,3.5c0,1.285.908,1.8,2.029,1.156a4.473,4.473,0,0,0,2.028-3.5C545.875,119.565,544.967,119.048,543.848,119.694Zm-13.881,8.014a4.473,4.473,0,0,0-2.028,3.5c0,1.285.908,1.8,2.028,1.156a4.469,4.469,0,0,0,2.029-3.5C532,127.579,531.087,127.062,529.967,127.708Zm27.761-16.028a4.473,4.473,0,0,0-2.028,3.5c0,1.285.908,1.8,2.028,1.156a4.467,4.467,0,0,0,2.029-3.5C559.757,111.551,558.848,111.034,557.728,111.68Zm-6.94,12.365a4.465,4.465,0,0,0-2.028,3.5c0,1.285.907,1.8,2.028,1.156a4.465,4.465,0,0,0,2.028-3.5C552.815,123.915,551.908,123.4,550.788,124.045Zm-6.94,4.006a4.467,4.467,0,0,0-2.029,3.5c0,1.285.908,1.8,2.029,1.156a4.473,4.473,0,0,0,2.028-3.5C545.875,127.923,544.967,127.405,543.848,128.051Zm-13.881,8.014a4.469,4.469,0,0,0-2.028,3.5c0,1.286.908,1.8,2.028,1.157a4.471,4.471,0,0,0,2.029-3.5C532,135.937,531.087,135.418,529.967,136.065Zm34.7-20.034a4.469,4.469,0,0,0-2.028,3.5c0,1.285.908,1.8,2.028,1.156a4.467,4.467,0,0,0,2.029-3.5C566.7,115.9,565.788,115.384,564.668,116.031Zm-6.94,4.006a4.471,4.471,0,0,0-2.028,3.5c0,1.285.908,1.8,2.028,1.156a4.471,4.471,0,0,0,2.029-3.5C559.757,119.909,558.848,119.391,557.728,120.037Zm-20.82,12.022a4.467,4.467,0,0,0-2.029,3.5c0,1.285.908,1.8,2.029,1.156a4.469,4.469,0,0,0,2.028-3.5C538.935,131.929,538.027,131.412,536.908,132.059Zm34.7-20.036a4.469,4.469,0,0,0-2.028,3.5c0,1.285.907,1.8,2.028,1.156a4.473,4.473,0,0,0,2.028-3.5C573.637,111.895,572.728,111.377,571.609,112.024Zm-41.642,32.4a4.469,4.469,0,0,0-2.028,3.5c0,1.285.908,1.8,2.028,1.156a4.467,4.467,0,0,0,2.029-3.5C532,144.294,531.087,143.775,529.967,144.423Zm6.941-4.008a4.471,4.471,0,0,0-2.029,3.5c0,1.285.908,1.8,2.029,1.156a4.473,4.473,0,0,0,2.028-3.5C538.935,140.286,538.027,139.769,536.908,140.415Zm6.94-4.006a4.467,4.467,0,0,0-2.029,3.5c0,1.285.908,1.8,2.029,1.156a4.469,4.469,0,0,0,2.028-3.5C545.875,136.28,544.967,135.762,543.848,136.409Zm13.88-8.014a4.469,4.469,0,0,0-2.028,3.5c0,1.285.908,1.8,2.028,1.156a4.467,4.467,0,0,0,2.029-3.5C559.757,128.266,558.848,127.748,557.728,128.395Zm-6.94,4.006a4.469,4.469,0,0,0-2.028,3.5c0,1.285.907,1.8,2.028,1.156a4.47,4.47,0,0,0,2.028-3.5C552.815,132.272,551.908,131.755,550.788,132.4Zm13.88-8.014a4.473,4.473,0,0,0-2.028,3.5c0,1.285.908,1.8,2.028,1.156a4.471,4.471,0,0,0,2.029-3.5C566.7,124.258,565.788,123.741,564.668,124.387Zm6.941-4.006a4.465,4.465,0,0,0-2.028,3.5c0,1.286.907,1.8,2.028,1.156a4.469,4.469,0,0,0,2.028-3.5C573.637,120.252,572.728,119.734,571.609,120.381Zm-34.7,28.392a4.467,4.467,0,0,0-2.029,3.5c0,1.286.908,1.8,2.029,1.156a4.469,4.469,0,0,0,2.028-3.5C538.935,148.644,538.027,148.125,536.908,148.772Zm27.76-16.028a4.471,4.471,0,0,0-2.028,3.5c0,1.286.908,1.8,2.028,1.156a4.467,4.467,0,0,0,2.029-3.5C566.7,132.616,565.788,132.1,564.668,132.744Zm6.941-4.006a4.465,4.465,0,0,0-2.028,3.5c0,1.285.907,1.8,2.028,1.156a4.469,4.469,0,0,0,2.028-3.5C573.637,128.608,572.728,128.091,571.609,128.738Zm-41.642,24.041a4.472,4.472,0,0,0-2.028,3.5c0,1.285.908,1.8,2.028,1.156a4.469,4.469,0,0,0,2.029-3.5C532,152.65,531.087,152.133,529.967,152.779Zm20.821-12.02a4.465,4.465,0,0,0-2.028,3.5c0,1.286.907,1.8,2.028,1.156a4.465,4.465,0,0,0,2.028-3.5C552.815,140.63,551.908,140.111,550.788,140.758Zm6.94-4.006a4.469,4.469,0,0,0-2.028,3.5c0,1.285.908,1.8,2.028,1.156a4.467,4.467,0,0,0,2.029-3.5C559.757,136.622,558.848,136.1,557.728,136.752Zm-13.88,8.014a4.467,4.467,0,0,0-2.029,3.5c0,1.285.908,1.8,2.029,1.156a4.469,4.469,0,0,0,2.028-3.5C545.875,144.636,544.967,144.119,543.848,144.766Zm6.94,4.35a4.465,4.465,0,0,0-2.028,3.5c0,1.285.907,1.8,2.028,1.156a4.465,4.465,0,0,0,2.028-3.5C552.815,148.987,551.908,148.469,550.788,149.116Zm-6.94,4.006a4.471,4.471,0,0,0-2.029,3.5c0,1.285.908,1.8,2.029,1.156a4.473,4.473,0,0,0,2.028-3.5C545.875,152.993,544.967,152.476,543.848,153.122Zm-6.94,4.008a4.467,4.467,0,0,0-2.029,3.5c0,1.285.908,1.8,2.029,1.156a4.469,4.469,0,0,0,2.028-3.5C538.935,157,538.027,156.482,536.908,157.13Zm-6.941,4.006a4.47,4.47,0,0,0-2.028,3.5c0,1.286.908,1.8,2.028,1.157a4.471,4.471,0,0,0,2.029-3.5C532,161.007,531.087,160.49,529.967,161.136Zm34.7-20.034a4.469,4.469,0,0,0-2.028,3.5c0,1.285.908,1.8,2.028,1.156a4.467,4.467,0,0,0,2.029-3.5C566.7,140.973,565.788,140.455,564.668,141.1Zm-6.94,4.006a4.473,4.473,0,0,0-2.028,3.5c0,1.285.908,1.8,2.028,1.156a4.471,4.471,0,0,0,2.029-3.5C559.757,144.979,558.848,144.462,557.728,145.108Zm13.881-8.014a4.469,4.469,0,0,0-2.028,3.5c0,1.285.907,1.8,2.028,1.156a4.473,4.473,0,0,0,2.028-3.5C573.637,136.965,572.728,136.448,571.609,137.094Z" transform="translate(7.796 4.869)" fill="url(#linear-gradient)"/>
      <path id="Path_572" data-name="Path 572" d="M551.562,69.823a4.463,4.463,0,0,0-4.043-.007,1.232,1.232,0,0,0,.012,2.334,4.471,4.471,0,0,0,4.043.007A1.232,1.232,0,0,0,551.562,69.823Zm-6.94-4.008a4.471,4.471,0,0,0-4.043-.007,1.232,1.232,0,0,0,.012,2.334,4.467,4.467,0,0,0,4.043.008A1.233,1.233,0,0,0,544.622,65.815Zm13.88,8.014a4.471,4.471,0,0,0-4.043-.007,1.232,1.232,0,0,0,.013,2.334,4.463,4.463,0,0,0,4.043.007A1.232,1.232,0,0,0,558.5,73.829ZM533.65,64.135a4.471,4.471,0,0,0,4.043.007,1.232,1.232,0,0,0-.013-2.334,4.463,4.463,0,0,0-4.043-.007A1.232,1.232,0,0,0,533.65,64.135Zm45.672,21.715a4.467,4.467,0,0,0-4.043-.008,1.233,1.233,0,0,0,.012,2.335,4.471,4.471,0,0,0,4.043.007A1.232,1.232,0,0,0,579.323,85.851Zm-13.881-8.014a4.467,4.467,0,0,0-4.043-.008,1.233,1.233,0,0,0,.013,2.335,4.471,4.471,0,0,0,4.043.007A1.232,1.232,0,0,0,565.442,77.837Zm6.94,4.006a4.465,4.465,0,0,0-4.042-.007,1.232,1.232,0,0,0,.012,2.334,4.467,4.467,0,0,0,4.043.007A1.232,1.232,0,0,0,572.381,81.843Zm-45.969-13.53a4.466,4.466,0,0,0,4.045.007,1.232,1.232,0,0,0-.013-2.334,4.471,4.471,0,0,0-4.043-.007A1.232,1.232,0,0,0,526.412,68.313Zm24.853,9.694A4.471,4.471,0,0,0,547.221,78a1.233,1.233,0,0,0,.012,2.335,4.471,4.471,0,0,0,4.043.007A1.233,1.233,0,0,0,551.265,78.007Zm13.88,8.014a4.471,4.471,0,0,0-4.043-.007,1.233,1.233,0,0,0,.013,2.335,4.471,4.471,0,0,0,4.043.007A1.233,1.233,0,0,0,565.145,86.021Zm6.94,4.008a4.467,4.467,0,0,0-4.043-.007,1.232,1.232,0,0,0,.013,2.334,4.467,4.467,0,0,0,4.043.007A1.232,1.232,0,0,0,572.085,90.029ZM558.2,82.015a4.471,4.471,0,0,0-4.043-.007,1.232,1.232,0,0,0,.013,2.334,4.465,4.465,0,0,0,4.042.007A1.232,1.232,0,0,0,558.2,82.015ZM537.384,69.993a4.471,4.471,0,0,0-4.043-.007,1.233,1.233,0,0,0,.013,2.335,4.471,4.471,0,0,0,4.043.007A1.233,1.233,0,0,0,537.384,69.993ZM544.324,74a4.471,4.471,0,0,0-4.043-.007,1.232,1.232,0,0,0,.013,2.334,4.467,4.467,0,0,0,4.043.007A1.232,1.232,0,0,0,544.324,74Zm-7.237,4.178a4.471,4.471,0,0,0-4.043-.007,1.233,1.233,0,0,0,.012,2.335,4.473,4.473,0,0,0,4.045.007A1.233,1.233,0,0,0,537.087,78.179Zm-13.88-8.014a4.473,4.473,0,0,0-4.045-.007,1.233,1.233,0,0,0,.013,2.335,4.471,4.471,0,0,0,4.043.007A1.233,1.233,0,0,0,523.207,70.165Zm6.94,4.008a4.467,4.467,0,0,0-4.043-.007,1.232,1.232,0,0,0,.012,2.334,4.471,4.471,0,0,0,4.043.007A1.232,1.232,0,0,0,530.147,74.172Zm13.88,8.014a4.467,4.467,0,0,0-4.043-.007A1.232,1.232,0,0,0,540,84.513a4.471,4.471,0,0,0,4.043.007A1.232,1.232,0,0,0,544.027,82.186Zm20.821,12.02A4.471,4.471,0,0,0,560.8,94.2a1.232,1.232,0,0,0,.013,2.334,4.465,4.465,0,0,0,4.042.008A1.233,1.233,0,0,0,564.848,94.207Zm-6.94-4.006a4.463,4.463,0,0,0-4.043-.007,1.232,1.232,0,0,0,.012,2.334,4.471,4.471,0,0,0,4.043.007A1.232,1.232,0,0,0,557.908,90.2Zm-6.941-4.008a4.468,4.468,0,0,0-4.042-.007,1.233,1.233,0,0,0,.012,2.335,4.471,4.471,0,0,0,4.043.007A1.233,1.233,0,0,0,550.967,86.193ZM529.85,82.358a4.47,4.47,0,0,0-4.045-.008,1.233,1.233,0,0,0,.013,2.335,4.471,4.471,0,0,0,4.043.007A1.232,1.232,0,0,0,529.85,82.358Zm-6.941-4.008a4.471,4.471,0,0,0-4.043-.007,1.232,1.232,0,0,0,.013,2.334,4.463,4.463,0,0,0,4.043.007A1.232,1.232,0,0,0,522.909,78.35Zm34.7,20.036a4.465,4.465,0,0,0-4.042-.008,1.233,1.233,0,0,0,.012,2.335,4.471,4.471,0,0,0,4.043.007A1.232,1.232,0,0,0,557.61,98.386Zm-13.88-8.014a4.467,4.467,0,0,0-4.043-.008A1.233,1.233,0,0,0,539.7,92.7a4.473,4.473,0,0,0,4.045.007A1.232,1.232,0,0,0,543.73,90.372Zm-6.94-4.008a4.471,4.471,0,0,0-4.043-.007,1.232,1.232,0,0,0,.012,2.334,4.463,4.463,0,0,0,4.043.007A1.232,1.232,0,0,0,536.79,86.364Zm13.88,8.014a4.471,4.471,0,0,0-4.043-.007,1.232,1.232,0,0,0,.013,2.334,4.463,4.463,0,0,0,4.043.007A1.232,1.232,0,0,0,550.67,94.378Zm-34.7-20.034a4.464,4.464,0,0,0-4.043-.007,1.232,1.232,0,0,0,.013,2.334,4.471,4.471,0,0,0,4.043.007A1.232,1.232,0,0,0,515.969,74.344Zm6.643,12.192a4.467,4.467,0,0,0-4.043-.007,1.232,1.232,0,0,0,.013,2.334,4.467,4.467,0,0,0,4.043.007A1.232,1.232,0,0,0,522.612,86.536Zm20.821,12.02a4.471,4.471,0,0,0-4.043-.007,1.233,1.233,0,0,0,.012,2.335,4.473,4.473,0,0,0,4.045.007A1.233,1.233,0,0,0,543.433,98.556Zm6.94,4.008a4.467,4.467,0,0,0-4.043-.007,1.232,1.232,0,0,0,.013,2.334,4.467,4.467,0,0,0,4.043.007A1.232,1.232,0,0,0,550.373,102.564ZM508.731,78.522a4.468,4.468,0,0,0-4.042-.007,1.232,1.232,0,0,0,.012,2.334,4.467,4.467,0,0,0,4.043.007A1.232,1.232,0,0,0,508.731,78.522ZM536.493,94.55a4.47,4.47,0,0,0-4.045-.007,1.232,1.232,0,0,0,.013,2.334,4.467,4.467,0,0,0,4.043.007A1.232,1.232,0,0,0,536.493,94.55Zm-6.941-4.006a4.467,4.467,0,0,0-4.043-.008,1.233,1.233,0,0,0,.013,2.335,4.471,4.471,0,0,0,4.043.007A1.232,1.232,0,0,0,529.552,90.544Zm-13.88-8.014a4.467,4.467,0,0,0-4.043-.008,1.233,1.233,0,0,0,.012,2.335,4.471,4.471,0,0,0,4.043.007A1.232,1.232,0,0,0,515.672,82.53Zm-14.178.17a4.471,4.471,0,0,0-4.043-.007,1.233,1.233,0,0,0,.013,2.335,4.471,4.471,0,0,0,4.043.007A1.233,1.233,0,0,0,501.494,82.7Zm13.881,8.014a4.471,4.471,0,0,0-4.043-.007,1.233,1.233,0,0,0,.012,2.335,4.471,4.471,0,0,0,4.043.007A1.233,1.233,0,0,0,515.375,90.714Zm-6.941-4.006a4.467,4.467,0,0,0-4.043-.007,1.232,1.232,0,0,0,.013,2.334,4.467,4.467,0,0,0,4.043.007A1.232,1.232,0,0,0,508.434,86.708Zm34.7,20.034a4.471,4.471,0,0,0-4.043-.007,1.232,1.232,0,0,0,.012,2.334,4.467,4.467,0,0,0,4.043.008A1.233,1.233,0,0,0,543.136,106.742Zm-20.821-12.02a4.467,4.467,0,0,0-4.043-.007,1.232,1.232,0,0,0,.013,2.334,4.465,4.465,0,0,0,4.042.007A1.232,1.232,0,0,0,522.315,94.722Zm13.88,8.014a4.467,4.467,0,0,0-4.043-.007,1.232,1.232,0,0,0,.013,2.334,4.471,4.471,0,0,0,4.043.007A1.232,1.232,0,0,0,536.2,102.736Zm-6.94-4.008a4.471,4.471,0,0,0-4.043-.007,1.232,1.232,0,0,0,.013,2.334,4.467,4.467,0,0,0,4.043.008A1.233,1.233,0,0,0,529.255,98.728Zm6.643,12.193a4.467,4.467,0,0,0-4.043-.008,1.233,1.233,0,0,0,.013,2.335,4.471,4.471,0,0,0,4.043.007A1.232,1.232,0,0,0,535.9,110.921ZM515.077,98.9a4.471,4.471,0,0,0-4.043-.007,1.232,1.232,0,0,0,.013,2.334,4.467,4.467,0,0,0,4.043.008A1.233,1.233,0,0,0,515.077,98.9Zm-20.82-12.02a4.467,4.467,0,0,0-4.043-.007,1.232,1.232,0,0,0,.012,2.334,4.471,4.471,0,0,0,4.043.007A1.232,1.232,0,0,0,494.257,86.879Zm27.761,16.028a4.463,4.463,0,0,0-4.043-.007,1.232,1.232,0,0,0,.012,2.334,4.471,4.471,0,0,0,4.043.007A1.232,1.232,0,0,0,522.018,102.907Zm-13.881-8.014a4.467,4.467,0,0,0-4.043-.007,1.232,1.232,0,0,0,.013,2.334,4.471,4.471,0,0,0,4.043.007A1.232,1.232,0,0,0,508.137,94.893Zm20.821,12.02a4.471,4.471,0,0,0-4.043-.007,1.232,1.232,0,0,0,.012,2.334,4.467,4.467,0,0,0,4.043.007A1.232,1.232,0,0,0,528.958,106.914ZM501.2,90.886a4.471,4.471,0,0,0-4.043-.007,1.232,1.232,0,0,0,.013,2.334,4.465,4.465,0,0,0,4.042.008A1.233,1.233,0,0,0,501.2,90.886Z" transform="translate(0.392 0)" fill="url(#linear-gradient)"/>
    </g>
  </g>
</svg>
